<?xml version="1.0" encoding="utf-8"?>
<!-- Generator: Adobe Illustrator 21.1.0, SVG Export Plug-In . SVG Version: 6.00 Build 0)  -->
<svg version="1.1" id="Layer_1" xmlns="http://www.w3.org/2000/svg" xmlns:xlink="http://www.w3.org/1999/xlink" x="0px" y="0px"
	 viewBox="0 0 698.2 242" style="enable-background:new 0 0 698.2 242;" xml:space="preserve">
<style type="text/css">
	.st0{fill:#FF3200;}
	.st1{fill:#231F20;}
	.st2{fill:#FFFFFF;}
</style>
<g>
	<g>
		<g>
			<g>
				<path d="M77.8,40.9c0,3.8-0.8,7.6-2.3,11.5c-1.5,3.9-3.7,7.3-6.6,10.4c-2.9,3-6.5,5.5-10.7,7.5c-4.2,1.9-9,2.9-14.4,2.9H15.4v44
					H1.5V7.7h40.1c4.5,0,8.9,0.6,13.3,1.9c4.4,1.3,8.2,3.2,11.6,5.9c3.4,2.7,6.1,6.1,8.2,10.3C76.8,30,77.8,35.1,77.8,40.9z
					 M63.4,40.5c0-6.7-2-11.7-6.1-15c-4-3.3-9.2-5-15.3-5H15.4v40h27.2c3.5,0,6.5-0.6,9.1-1.8c2.6-1.2,4.8-2.8,6.5-4.6
					c1.7-1.9,3-4,3.9-6.4C63,45.3,63.4,42.9,63.4,40.5z"/>
				<path d="M95.3,82.6v1.3c0,3.1,0.4,6,1.3,8.7c0.8,2.7,2.1,5.1,3.8,7.2c1.7,2.1,3.8,3.7,6.3,4.8c2.5,1.2,5.4,1.7,8.8,1.7
					c2.5,0,5.4-0.6,8.7-1.9c3.3-1.3,6.3-3.1,8.9-5.5l8.3,9.3c-3.7,3.5-7.8,6.1-12.4,7.6c-4.6,1.6-9.3,2.3-14.2,2.3
					c-4,0-7.9-0.6-11.9-1.7c-3.9-1.1-7.5-3.1-10.6-6.1c-3.1-2.9-5.7-7-7.6-12.1c-1.9-5.1-2.9-11.7-2.9-19.8c0-7.7,1-14.1,3-19.3
					c2-5.2,4.6-9.3,7.7-12.4c3.1-3.1,6.7-5.3,10.5-6.6c3.9-1.3,7.7-2,11.3-2c4.3,0,8.3,0.8,12.1,2.3c3.8,1.5,7.1,3.8,9.9,6.7
					c2.8,2.9,5.1,6.5,6.7,10.8c1.6,4.2,2.4,9.1,2.4,14.6v10.1H95.3z M113.7,50.5c-5.3,0-9.6,1.8-12.9,5.5c-3.3,3.7-5.1,8.9-5.5,15.7
					H132c-0.3-7-2.1-12.3-5.3-15.9C123.4,52.3,119.1,50.5,113.7,50.5z"/>
				<path d="M188.7,38.6c5.6,0,10.7,1.1,15.1,3.4c4.4,2.3,7.9,5.5,10.7,9.7c1.8,2.8,3.1,6.3,4,10.3c0.9,4,1.3,8.6,1.3,13.6
					c0,6.7-0.4,12.3-1.1,16.9c-0.7,4.6-2,8.4-3.8,11.4c-2.7,4.6-6.5,8.2-11.4,10.6c-4.9,2.5-10.4,3.7-16.6,3.7
					c-5.7,0-10.7-1-15.1-2.9c-4.4-1.9-7.9-4.9-10.7-8.9c-2.1-3.3-3.6-7.1-4.5-11.6c-0.9-4.5-1.3-9.9-1.3-16.2
					c0-4.4,0.3-8.5,0.9-12.2c0.6-3.7,1.6-7.1,3.1-10.1c2.6-5.7,6.5-10,11.5-13.1C175.9,40.1,181.9,38.6,188.7,38.6z M188.3,50.4
					c-3.9,0-7.3,1-10.3,2.9c-3,1.9-5.3,4.6-6.8,8.1c-1.2,2.4-1.9,5-2.2,7.9c-0.3,2.9-0.5,6-0.6,9.5c0,3.5,0.1,6.6,0.4,9.3
					c0.3,2.8,0.9,5.3,2,7.6c1.5,3.3,3.6,6,6.5,7.8c2.8,1.9,6.2,2.8,10.1,2.8c4.2,0,7.9-1.1,11.2-3.3c3.3-2.2,5.7-5.7,7.2-10.5
					c0.5-1.9,0.9-4.1,1-6.5c0.2-2.5,0.2-5.8,0.2-10c0-3-0.1-5.7-0.4-8.1c-0.3-2.4-0.8-4.5-1.6-6.4c-1.5-3.9-3.7-6.7-6.6-8.6
					C195.3,51.3,191.9,50.4,188.3,50.4z"/>
				<path d="M243.7,39.2v8.7l0.5,0.2c3-3.5,6.4-5.9,10-7.4c3.6-1.5,7.4-2.2,11.2-2.2c5.6,0,10.1,1.1,13.8,3.4c3.6,2.3,6.5,5.2,8.6,9
					c2.1,3.7,3.5,7.9,4.3,12.6c0.8,4.7,1.2,9.4,1.2,14.2c0,5-0.4,10-1.3,14.9c-0.8,4.9-2.4,9.2-4.7,13c-2.3,3.8-5.4,6.8-9.4,9.2
					c-3.9,2.4-8.9,3.5-15,3.5c-3.9,0-7.4-0.6-10.6-1.9c-3.2-1.2-6-3.2-8.3-5.9h-0.3v38h-12.9V39.2H243.7z M243.7,78.5
					c0,2.9,0.2,6,0.6,9.2c0.4,3.2,1.2,6.1,2.4,8.8c1.2,2.6,3,4.8,5.3,6.5c2.3,1.7,5.5,2.5,9.4,2.5c4.1,0,7.3-0.8,9.8-2.4
					c2.4-1.6,4.2-3.7,5.5-6.3c1.3-2.6,2.1-5.5,2.5-8.7c0.4-3.2,0.6-6.4,0.6-9.5c0-3-0.2-6.2-0.5-9.4c-0.3-3.2-1.1-6.2-2.2-8.8
					c-1.2-2.7-2.9-4.9-5.3-6.6c-2.4-1.7-5.6-2.5-9.7-2.5c-4,0-7.2,0.9-9.6,2.7c-2.4,1.8-4.3,4-5.6,6.7c-1.3,2.7-2.2,5.6-2.6,8.8
					C243.9,72.6,243.7,75.6,243.7,78.5z"/>
				<path d="M324,117.2c-5.7,0-10.3-1.3-13.8-4c-3.6-2.7-5.4-7.4-5.4-14.1V3h12.9v95c0,4.9,2.7,7.4,8,7.4h3.8v11.8H324z"/>
				<path d="M348.1,82.6v1.3c0,3.1,0.4,6,1.3,8.7c0.8,2.7,2.1,5.1,3.8,7.2c1.7,2.1,3.8,3.7,6.3,4.8c2.5,1.2,5.4,1.7,8.8,1.7
					c2.5,0,5.4-0.6,8.7-1.9c3.3-1.3,6.3-3.1,8.9-5.5l8.3,9.3c-3.7,3.5-7.8,6.1-12.4,7.6c-4.6,1.6-9.3,2.3-14.2,2.3
					c-4,0-7.9-0.6-11.9-1.7c-3.9-1.1-7.5-3.1-10.6-6.1c-3.1-2.9-5.7-7-7.6-12.1c-1.9-5.1-2.9-11.7-2.9-19.8c0-7.7,1-14.1,3-19.3
					c2-5.2,4.6-9.3,7.7-12.4c3.1-3.1,6.7-5.3,10.5-6.6c3.9-1.3,7.7-2,11.3-2c4.3,0,8.3,0.8,12.1,2.3c3.8,1.5,7.1,3.8,9.9,6.7
					c2.8,2.9,5.1,6.5,6.7,10.8c1.6,4.2,2.4,9.1,2.4,14.6v10.1H348.1z M366.5,50.5c-5.3,0-9.6,1.8-12.9,5.5
					c-3.3,3.7-5.1,8.9-5.5,15.7h36.7c-0.3-7-2.1-12.3-5.3-15.9C376.2,52.3,371.9,50.5,366.5,50.5z"/>
				<path class="st0" d="M487.3,94.9c-2.7,7.3-7.2,13.1-13.4,17.1c-6.2,4.1-13.7,6.1-22.6,6.1c-6.5,0-12.2-1.1-17.1-3.3
					c-4.9-2.2-9-5.1-12.2-8.8c-3.3-3.7-5.7-8-7.3-12.9c-1.6-4.9-2.4-10.1-2.4-15.6V47.4c0-5.3,0.8-10.5,2.4-15.3
					c1.6-4.9,4-9.2,7.3-12.9c3.3-3.7,7.4-6.7,12.2-8.9c4.9-2.2,10.6-3.3,17.1-3.3c8.9,0,16.4,2.1,22.5,6.3
					c6.1,4.2,10.5,9.8,13.4,16.8l-12.9,5.8c-1.8-4.7-4.6-8.5-8.5-11.3c-3.9-2.8-8.7-4.2-14.3-4.2c-4.3,0-8,0.8-11.2,2.4
					c-3.1,1.6-5.8,3.6-7.9,6.2c-2.1,2.6-3.7,5.5-4.7,8.9c-1,3.4-1.6,6.8-1.6,10.2v28.5c0,3.7,0.5,7.2,1.6,10.6c1,3.4,2.6,6.4,4.7,9
					c2.1,2.6,4.7,4.7,7.9,6.4c3.1,1.6,6.9,2.4,11.2,2.4c5.7,0,10.5-1.5,14.4-4.5c3.9-3,6.8-6.9,8.6-11.9L487.3,94.9z"/>
				<path class="st0" d="M505.3,82.6v1.3c0,3.1,0.4,6,1.3,8.7c0.8,2.7,2.1,5.1,3.8,7.2c1.7,2.1,3.8,3.7,6.3,4.8
					c2.5,1.2,5.4,1.7,8.8,1.7c2.5,0,5.4-0.6,8.7-1.9c3.3-1.3,6.3-3.1,8.9-5.5l8.3,9.3c-3.7,3.5-7.8,6.1-12.4,7.6
					c-4.6,1.6-9.3,2.3-14.2,2.3c-4,0-7.9-0.6-11.9-1.7c-3.9-1.1-7.5-3.1-10.6-6.1c-3.1-2.9-5.7-7-7.6-12.1
					c-1.9-5.1-2.9-11.7-2.9-19.8c0-7.7,1-14.1,3-19.3c2-5.2,4.6-9.3,7.7-12.4c3.1-3.1,6.7-5.3,10.5-6.6c3.9-1.3,7.7-2,11.3-2
					c4.3,0,8.3,0.8,12.1,2.3c3.8,1.5,7.1,3.8,9.9,6.7c2.8,2.9,5.1,6.5,6.7,10.8c1.6,4.2,2.4,9.1,2.4,14.6v10.1H505.3z M523.7,50.5
					c-5.3,0-9.6,1.8-12.9,5.5c-3.3,3.7-5.1,8.9-5.5,15.7h36.7c-0.3-7-2.1-12.3-5.3-15.9C533.3,52.3,529,50.5,523.7,50.5z"/>
				<path class="st0" d="M607.4,54.2c-3-2-6.7-3-11-3c-5.1,0-9.4,1.6-12.7,4.7c-3.4,3.1-5,7.9-5,14.2v47.2h-12.9v-78h12.9v9.9h0.6
					c2.7-4,5.8-6.8,9.1-8.3c3.4-1.6,7.1-2.4,11.3-2.4c2.7,0,5.2,0.3,7.6,0.9c2.3,0.6,4.2,1.4,5.7,2.4L607.4,54.2z"/>
				<path class="st0" d="M645.3,117.2c-5.3,0-9.7-1.5-13.1-4.6c-3.4-3.1-5-7.6-5-13.6V50.4h-9.3V39.2h9.3V19.9h12.9v19.3h12v11.2
					h-12v45.3c0,2.4,0.5,4.6,1.4,6.7c0.9,2,3,3.1,6.3,3.1h6.8v11.8H645.3z"/>
			</g>
		</g>
	</g>
	<g>
		<path d="M143.9,234.2l-3.3-9.5h-17.2l-3.3,9.5h-5.5l15.2-41.5h4.5l15.2,41.5H143.9z M135,208.5l-3-8.9h-0.2l-2.9,8.6l-4.1,11.9
			H139L135,208.5z"/>
		<path d="M158.7,234.2c-2.1,0-3.9-0.5-5.3-1.5c-1.4-1-2-2.8-2-5.3v-36.5h4.9v36c0,1.9,1,2.8,3,2.8h1.4v4.5H158.7z"/>
		<path d="M170.8,234.2c-2.1,0-3.9-0.5-5.3-1.5c-1.4-1-2-2.8-2-5.3v-36.5h4.9v36c0,1.9,1,2.8,3,2.8h1.4v4.5H170.8z"/>
		<path d="M195,234.2c-2,0-3.7-0.6-5-1.8c-1.3-1.2-1.9-2.9-1.9-5.2v-18.4h-3.5v-4.2h3.5v-7.3h4.9v7.3h4.5v4.2h-4.5v17.2
			c0,0.9,0.2,1.8,0.5,2.5c0.4,0.8,1.2,1.2,2.4,1.2h2.6v4.5H195z"/>
		<path d="M212.4,204.3c1.6,0,3.1,0.2,4.6,0.4c1.4,0.3,2.7,0.8,3.8,1.5c1.1,0.7,2,1.7,2.6,2.9c0.6,1.2,1,2.8,1,4.7v20.3h-4.9v-2.6
			l-0.1-0.1c-0.6,0.9-1.6,1.6-3,2.2c-1.4,0.6-3.2,0.8-5.2,0.8c-3.4,0-6-0.8-7.8-2.5c-1.8-1.6-2.7-3.7-2.7-6.3c0-1.2,0.2-2.3,0.6-3.3
			c0.4-1.1,1-2,1.8-2.8c0.8-0.8,1.7-1.4,2.9-1.9c1.2-0.5,2.6-0.7,4.1-0.7h9.3v-3.3c0-1.6-0.5-2.8-1.6-3.6c-1.1-0.8-2.8-1.2-5.2-1.2
			c-1.9,0-3.3,0.2-4.4,0.7c-1.1,0.5-2,1.1-2.6,1.9l-3.1-3.3c1.1-1.3,2.5-2.2,4.3-2.9C208.5,204.7,210.4,204.3,212.4,204.3z
			 M205.3,225.5c0,1.4,0.5,2.5,1.6,3.3c1.1,0.8,2.7,1.3,4.9,1.3c1,0,1.9-0.1,2.8-0.2c0.9-0.2,1.7-0.4,2.4-0.9c0.7-0.4,1.3-1,1.7-1.7
			c0.4-0.7,0.7-1.6,0.7-2.7v-3.5h-8.1c-1.9,0-3.4,0.4-4.4,1.1C205.8,223.1,205.3,224.1,205.3,225.5z"/>
		<path d="M236.3,234.2c-2.2,0-3.9-0.5-5.3-1.5c-1.4-1-2-2.8-2-5.3v-36.5h4.9v36c0,1.9,1,2.8,3,2.8h1.4v4.5H236.3z"/>
		<path d="M244.5,221.1v0.5c0,1.2,0.2,2.3,0.5,3.3c0.3,1,0.8,2,1.4,2.7c0.6,0.8,1.4,1.4,2.4,1.8c1,0.4,2.1,0.7,3.3,0.7
			c1,0,2.1-0.2,3.3-0.7c1.2-0.5,2.4-1.2,3.4-2.1l3.2,3.5c-1.4,1.3-3,2.3-4.7,2.9c-1.7,0.6-3.5,0.9-5.4,0.9c-1.5,0-3-0.2-4.5-0.6
			c-1.5-0.4-2.8-1.2-4-2.3c-1.2-1.1-2.2-2.6-2.9-4.6c-0.7-1.9-1.1-4.5-1.1-7.5c0-2.9,0.4-5.3,1.1-7.3c0.8-2,1.7-3.5,2.9-4.7
			c1.2-1.2,2.5-2,4-2.5c1.5-0.5,2.9-0.7,4.3-0.7c1.6,0,3.2,0.3,4.6,0.9c1.4,0.6,2.7,1.4,3.8,2.5c1.1,1.1,1.9,2.5,2.5,4.1
			c0.6,1.6,0.9,3.5,0.9,5.5v3.8H244.5z M251.5,208.9c-2,0-3.7,0.7-4.9,2.1c-1.2,1.4-1.9,3.4-2.1,6h13.9c-0.1-2.7-0.8-4.7-2-6
			C255.2,209.6,253.5,208.9,251.5,208.9z"/>
		<path d="M285.3,234.2v-17.7c0-2.3-0.5-4.1-1.4-5.4c-1-1.3-2.7-2-5.3-2c-2,0-3.6,0.7-5,2c-1.3,1.3-2,3.1-2,5.4v17.7h-4.9v-29.7h4.9
			v3.8h0.2c1-1.3,2.3-2.3,3.8-3c1.5-0.7,3.1-1,4.7-1c1.4,0,2.7,0.2,3.9,0.6c1.2,0.4,2.2,1.1,3.1,1.9c0.9,0.9,1.6,1.9,2.1,3.2
			c0.5,1.3,0.7,2.8,0.7,4.5v19.6H285.3z"/>
		<path d="M303.6,234.2c-2,0-3.7-0.6-5-1.8c-1.3-1.2-1.9-2.9-1.9-5.2v-18.4h-3.5v-4.2h3.5v-7.3h4.9v7.3h4.5v4.2h-4.5v17.2
			c0,0.9,0.2,1.8,0.5,2.5c0.4,0.8,1.2,1.2,2.4,1.2h2.6v4.5H303.6z"/>
		<path d="M332.3,225.4c0,1.4-0.3,2.7-0.9,3.8c-0.6,1.1-1.4,2.1-2.4,2.9c-1,0.8-2.3,1.4-3.7,1.9c-1.4,0.4-3,0.7-4.7,0.7
			c-2.1,0-4.3-0.3-6.4-1c-2.1-0.7-4.1-1.8-5.9-3.3l3-3.8c1.4,1.2,2.9,2.1,4.4,2.7c1.5,0.6,3.3,0.9,5.2,0.9c1.8,0,3.3-0.4,4.6-1.1
			c1.3-0.8,1.9-1.9,1.9-3.5c0-1.5-0.6-2.5-1.9-3.1c-1.3-0.5-2.9-0.9-4.9-1.1c-1.2-0.1-2.4-0.3-3.6-0.5c-1.2-0.2-2.4-0.6-3.4-1.2
			c-1-0.6-1.9-1.3-2.5-2.4c-0.7-1-1-2.4-1-4c0-1.4,0.3-2.6,0.9-3.7c0.6-1.1,1.4-2.1,2.4-2.8c1-0.8,2.1-1.4,3.5-1.8
			c1.3-0.4,2.7-0.6,4.1-0.6c2.3,0,4.3,0.3,5.9,0.8c1.7,0.6,3.2,1.3,4.6,2.4l-2.6,3.9c-1.2-0.8-2.4-1.4-3.6-1.9
			c-1.3-0.5-2.7-0.7-4.3-0.7c-1.9,0-3.4,0.4-4.4,1.2c-1.1,0.8-1.6,1.9-1.6,3.2c0,1.4,0.7,2.3,2,2.8c1.3,0.5,3.4,0.9,6.1,1.2
			c1,0.1,2.1,0.3,3.2,0.6c1.1,0.3,2.1,0.8,3,1.4c0.9,0.6,1.6,1.4,2.2,2.5C332,222.7,332.3,224,332.3,225.4z"/>
		<path d="M338.9,241h-3l1.9-6.7h-1.7v-6.6h6.1v6.5L338.9,241z"/>
		<path d="M376.2,233.5c-1.6,0.8-3.4,1.1-5.4,1.1c-1.7,0-3.4-0.3-5-0.8c-1.6-0.6-3-1.4-4.3-2.7c-1.3-1.2-2.3-2.8-3-4.7
			c-0.8-1.9-1.1-4.2-1.1-6.9c0-2.7,0.4-5.1,1.1-7c0.8-1.9,1.8-3.5,3-4.7c1.3-1.2,2.7-2.1,4.3-2.7c1.6-0.6,3.3-0.8,5-0.8
			c2,0,3.8,0.4,5.4,1.1c1.6,0.8,3,1.7,4.3,3l-3.2,3.6c-0.8-0.9-1.7-1.6-2.9-2.2c-1.1-0.5-2.3-0.8-3.4-0.8c-2.8,0-4.9,0.9-6.5,2.6
			c-1.5,1.7-2.3,4.3-2.3,7.9c0,3.5,0.8,6.1,2.3,7.8c1.5,1.7,3.7,2.6,6.5,2.6c1.3,0,2.5-0.3,3.6-0.9c1.1-0.6,2-1.3,2.7-2.1l3.2,3.5
			C379.2,231.7,377.8,232.7,376.2,233.5z"/>
		<path d="M386.5,221.1v0.5c0,1.2,0.2,2.3,0.5,3.3s0.8,2,1.4,2.7c0.6,0.8,1.4,1.4,2.4,1.8c1,0.4,2.1,0.7,3.3,0.7
			c1,0,2.1-0.2,3.3-0.7c1.2-0.5,2.4-1.2,3.4-2.1l3.2,3.5c-1.4,1.3-3,2.3-4.7,2.9c-1.7,0.6-3.5,0.9-5.4,0.9c-1.5,0-3-0.2-4.5-0.6
			c-1.5-0.4-2.8-1.2-4-2.3c-1.2-1.1-2.2-2.6-2.9-4.6c-0.7-1.9-1.1-4.5-1.1-7.5c0-2.9,0.4-5.3,1.1-7.3c0.8-2,1.7-3.5,2.9-4.7
			c1.2-1.2,2.5-2,4-2.5c1.5-0.5,2.9-0.7,4.3-0.7c1.6,0,3.2,0.3,4.6,0.9c1.4,0.6,2.7,1.4,3.8,2.5c1.1,1.1,1.9,2.5,2.5,4.1
			c0.6,1.6,0.9,3.5,0.9,5.5v3.8H386.5z M393.5,208.9c-2,0-3.7,0.7-4.9,2.1c-1.2,1.4-1.9,3.4-2.1,6h13.9c-0.1-2.7-0.8-4.7-2-6
			C397.1,209.6,395.5,208.9,393.5,208.9z"/>
		<path d="M425.2,210.3c-1.2-0.8-2.5-1.1-4.2-1.1c-1.9,0-3.6,0.6-4.8,1.8c-1.3,1.2-1.9,3-1.9,5.4v17.9h-4.9v-29.6h4.9v3.8h0.2
			c1-1.5,2.2-2.6,3.5-3.2c1.3-0.6,2.7-0.9,4.3-0.9c1,0,2,0.1,2.9,0.3c0.9,0.2,1.6,0.5,2.2,0.9L425.2,210.3z"/>
		<path d="M437.2,234.2c-2,0-3.7-0.6-5-1.8c-1.3-1.2-1.9-2.9-1.9-5.2v-18.4h-3.5v-4.2h3.5v-7.3h4.9v7.3h4.5v4.2h-4.5v17.2
			c0,0.9,0.2,1.8,0.5,2.5c0.4,0.8,1.2,1.2,2.4,1.2h2.6v4.5H437.2z"/>
		<path d="M445,197.5v-4.8h4.9v4.8H445z M445,234.2v-29.6h4.9v29.6H445z"/>
		<path d="M471,234.2v-25.3h-9.5v25.3h-4.9v-25.3H453v-4.3h3.6v-4.8c0-1.9,0.3-3.4,0.8-4.7c0.6-1.2,1.3-2.2,2.3-2.9
			c0.9-0.7,2-1.2,3.3-1.5c1.2-0.3,2.5-0.4,3.9-0.4c4.1,0,7.3,1.3,9.5,3.8l-3.3,3.3c-0.7-0.8-1.5-1.4-2.5-1.9c-1-0.5-2.3-0.7-3.9-0.7
			c-3.3,0-5,1.6-5,4.8v4.9h14.4v29.6H471z"/>
		<path d="M485.3,221.1v0.5c0,1.2,0.2,2.3,0.5,3.3s0.8,2,1.4,2.7c0.6,0.8,1.4,1.4,2.4,1.8c1,0.4,2.1,0.7,3.3,0.7
			c1,0,2.1-0.2,3.3-0.7c1.2-0.5,2.4-1.2,3.4-2.1l3.2,3.5c-1.4,1.3-3,2.3-4.7,2.9c-1.7,0.6-3.5,0.9-5.4,0.9c-1.5,0-3-0.2-4.5-0.6
			c-1.5-0.4-2.8-1.2-4-2.3c-1.2-1.1-2.2-2.6-2.9-4.6c-0.7-1.9-1.1-4.5-1.1-7.5c0-2.9,0.4-5.3,1.1-7.3c0.8-2,1.7-3.5,2.9-4.7
			c1.2-1.2,2.5-2,4-2.5c1.5-0.5,2.9-0.7,4.3-0.7c1.6,0,3.2,0.3,4.6,0.9c1.4,0.6,2.7,1.4,3.8,2.5c1.1,1.1,1.9,2.5,2.5,4.1
			c0.6,1.6,0.9,3.5,0.9,5.5v3.8H485.3z M492.3,208.9c-2,0-3.7,0.7-4.9,2.1c-1.2,1.4-1.9,3.4-2.1,6h13.9c-0.1-2.7-0.8-4.7-2-6
			C495.9,209.6,494.3,208.9,492.3,208.9z"/>
		<path d="M525.7,234.2v-2.9l-0.2-0.1c-1.3,1.3-2.7,2.1-4,2.6c-1.4,0.5-2.8,0.7-4.3,0.7c-2.1,0-3.8-0.4-5.2-1.2
			c-1.3-0.8-2.4-1.9-3.2-3.2c-0.8-1.4-1.3-2.9-1.5-4.7c-0.3-1.8-0.4-3.7-0.4-5.7c0-1.9,0.2-3.8,0.5-5.6s0.9-3.5,1.8-4.9
			c0.9-1.4,2-2.6,3.5-3.5c1.5-0.9,3.4-1.3,5.7-1.3c1.5,0,2.8,0.2,4.1,0.7c1.3,0.5,2.3,1.2,3,2.2h0.1v-16.4h4.9v43.3H525.7z
			 M525.7,219.4c0-1.1-0.1-2.3-0.2-3.5c-0.1-1.2-0.4-2.3-0.9-3.3c-0.5-1-1.1-1.8-2-2.5c-0.9-0.6-2.1-1-3.6-1c-1.5,0-2.8,0.3-3.7,0.9
			c-0.9,0.6-1.6,1.4-2.1,2.4c-0.5,1-0.8,2.1-1,3.3c-0.2,1.2-0.2,2.4-0.2,3.6c0,1.4,0.1,2.7,0.2,3.9c0.1,1.2,0.4,2.3,0.9,3.3
			c0.5,1,1.1,1.7,2,2.3c0.9,0.6,2.1,0.8,3.6,0.8c1.5,0,2.7-0.3,3.6-1c0.9-0.7,1.6-1.5,2.1-2.5c0.5-1,0.8-2.1,1-3.4
			C525.6,221.6,525.7,220.5,525.7,219.4z"/>
		<path d="M535.5,234.2v-6.6h6.1v6.6H535.5z"/>
	</g>
	<g>
		<path class="st1" d="M696.6,14.4c0,1.9-0.3,3.7-1,5.3c-0.7,1.6-1.6,3-2.7,4.2c-1.2,1.2-2.5,2.1-4.1,2.8c-1.6,0.7-3.3,1-5.2,1
			c-1.8,0-3.5-0.3-5.1-1c-1.6-0.7-3-1.6-4.2-2.8c-1.2-1.2-2.1-2.6-2.7-4.2c-0.7-1.6-1-3.4-1-5.3s0.3-3.7,1-5.3
			c0.7-1.6,1.6-3.1,2.7-4.3c1.2-1.2,2.5-2.1,4.2-2.8c1.6-0.7,3.3-1,5.1-1c1.9,0,3.6,0.3,5.2,1c1.6,0.7,3,1.6,4.1,2.8
			c1.2,1.2,2.1,2.6,2.7,4.3C696.3,10.8,696.6,12.5,696.6,14.4z M694.1,14.4c0-1.6-0.3-3-0.8-4.4c-0.5-1.3-1.3-2.5-2.2-3.5
			c-0.9-1-2-1.7-3.3-2.3c-1.3-0.6-2.7-0.8-4.2-0.8c-1.5,0-2.9,0.3-4.2,0.8c-1.3,0.6-2.4,1.3-3.3,2.3c-0.9,1-1.7,2.1-2.2,3.5
			c-0.5,1.3-0.8,2.8-0.8,4.4c0,1.5,0.3,3,0.8,4.3c0.5,1.3,1.3,2.5,2.2,3.5c0.9,1,2,1.7,3.3,2.3c1.3,0.6,2.7,0.8,4.2,0.8
			c1.5,0,2.9-0.3,4.2-0.8c1.3-0.6,2.4-1.3,3.3-2.3c0.9-1,1.7-2.1,2.2-3.5C693.8,17.4,694.1,16,694.1,14.4z M683.9,15.7h-2.6v6.5
			h-2.6V6.7h6.2c1.2,0,2.3,0.4,3.2,1.2c0.9,0.8,1.3,1.9,1.3,3.2c0,1-0.3,1.8-0.8,2.6c-0.5,0.7-1.2,1.3-2.1,1.6l3.5,6.8h-2.9
			L683.9,15.7z M681.3,9.1v4.2h3.2c0.7,0,1.3-0.2,1.7-0.6s0.7-0.9,0.7-1.6c0-1.4-0.8-2-2.3-2H681.3z"/>
	</g>
</g>
</svg>
